# MagicaVoxel @ Ephtracy

# group
o 

# material
mtllib Cabin.mtl
usemtl palette

# normals
vn -1 0 0
vn 1 0 0
vn 0 0 1
vn 0 0 -1
vn 0 -1 0
vn 0 1 0

# texcoords
vt 0.310547 0.5
vt 0.318359 0.5
vt 0.388672 0.5
vt 0.404297 0.5
vt 0.427734 0.5
vt 0.994141 0.5

# verts
v -0.1 -4 0.2
v -0.1 -4 -0.3
v -0.1 -3.9 0.2
v -0.1 -3.9 0.1
v -0.1 -3.9 0
v -0.1 -3.9 -0.1
v -0.1 -3.9 -0.2
v -0.1 -3.9 -0.3
v -0.1 -3.8 0.2
v -0.1 -3.8 0.1
v -0.1 -3.8 0
v -0.1 -3.8 -0.1
v -0.1 -3.8 -0.2
v -0.1 -3.8 -0.3
v -0.1 -3.7 0.2
v -0.1 -3.7 0
v -0.1 -3.7 -0.1
v -0.1 -3.7 -0.2
v -0.1 -3.7 -0.3
v 0 -3.7 0.2
v 0 -3.7 0.1
v 0 -3.7 0
v 0 -3.7 -0.1
v 0 -3.7 -0.2
v 0 -3.7 -0.3
v 0 -3.6 0.2
v 0 -3.6 0.1
v 0 -3.6 0
v 0 -3.6 -0.1
v 0 -3.6 -0.3
v 0.1 -3.7 0.2
v 0.1 -3.7 0.1
v 0.1 -3.7 0
v 0.1 -3.7 -0.1
v 0.1 -3.7 -0.2
v 0.1 -3.7 -0.3
v 0.1 -3.6 0.2
v 0.1 -3.6 0.1
v 0.1 -3.6 0
v 0.1 -3.6 -0.1
v 0.1 -3.6 -0.3
v 0.2 -4 0.2
v 0.2 -4 -0.3
v 0.2 -3.9 0.2
v 0.2 -3.9 0.1
v 0.2 -3.9 0
v 0.2 -3.9 -0.1
v 0.2 -3.9 -0.2
v 0.2 -3.9 -0.3
v 0.2 -3.8 0.2
v 0.2 -3.8 0.1
v 0.2 -3.8 0
v 0.2 -3.8 -0.1
v 0.2 -3.8 -0.2
v 0.2 -3.8 -0.3
v 0.2 -3.7 0.2
v 0.2 -3.7 0
v 0.2 -3.7 -0.1
v 0.2 -3.7 -0.2
v 0.2 -3.7 -0.3
v -0.1 -4 0.2
v -0.1 -3.9 0.2
v -0.1 -3.8 0.2
v -0.1 -3.7 0.2
v 0 -4 0.2
v 0 -3.9 0.2
v 0 -3.8 0.2
v 0 -3.7 0.2
v 0 -3.6 0.2
v 0.1 -4 0.2
v 0.1 -3.9 0.2
v 0.1 -3.8 0.2
v 0.1 -3.7 0.2
v 0.1 -3.6 0.2
v 0.2 -4 0.2
v 0.2 -3.9 0.2
v 0.2 -3.8 0.2
v 0.2 -3.7 0.2
v -0.1 -4 -0.3
v -0.1 -3.9 -0.3
v -0.1 -3.8 -0.3
v -0.1 -3.7 -0.3
v 0 -4 -0.3
v 0 -3.9 -0.3
v 0 -3.8 -0.3
v 0 -3.7 -0.3
v 0 -3.6 -0.3
v 0.1 -4 -0.3
v 0.1 -3.9 -0.3
v 0.1 -3.8 -0.3
v 0.1 -3.7 -0.3
v 0.1 -3.6 -0.3
v 0.2 -4 -0.3
v 0.2 -3.9 -0.3
v 0.2 -3.8 -0.3
v 0.2 -3.7 -0.3
v -0.1 -4 0.2
v 0 -4 0.2
v 0.1 -4 0.2
v 0.2 -4 0.2
v 0 -4 0.1
v 0.1 -4 0.1
v 0 -4 -0.2
v 0.1 -4 -0.2
v -0.1 -4 -0.3
v 0 -4 -0.3
v 0.1 -4 -0.3
v 0.2 -4 -0.3
v -0.1 -3.7 0.2
v 0 -3.7 0.2
v 0.1 -3.7 0.2
v 0.2 -3.7 0.2
v 0 -3.7 0.1
v 0.1 -3.7 0.1
v -0.1 -3.7 0
v 0 -3.7 0
v 0.1 -3.7 0
v 0.2 -3.7 0
v -0.1 -3.7 -0.1
v 0 -3.7 -0.1
v 0.1 -3.7 -0.1
v 0.2 -3.7 -0.1
v -0.1 -3.7 -0.2
v 0 -3.7 -0.2
v 0.1 -3.7 -0.2
v 0.2 -3.7 -0.2
v -0.1 -3.7 -0.3
v 0 -3.7 -0.3
v 0.1 -3.7 -0.3
v 0.2 -3.7 -0.3
v 0 -3.6 0.2
v 0.1 -3.6 0.2
v 0 -3.6 0.1
v 0.1 -3.6 0.1
v 0 -3.6 0
v 0.1 -3.6 0
v 0 -3.6 -0.1
v 0.1 -3.6 -0.1
v 0 -3.6 -0.3
v 0.1 -3.6 -0.3

# faces
f 3/2/1 2/2/1 1/2/1
f 4/2/1 2/2/1 3/2/1
f 5/2/1 2/2/1 4/2/1
f 6/2/1 2/2/1 5/2/1
f 7/2/1 2/2/1 6/2/1
f 8/2/1 2/2/1 7/2/1
f 9/1/1 4/1/1 3/1/1
f 10/6/1 5/6/1 4/6/1
f 10/1/1 4/1/1 9/1/1
f 11/1/1 6/1/1 5/1/1
f 11/6/1 5/6/1 10/6/1
f 12/6/1 7/6/1 6/6/1
f 12/1/1 6/1/1 11/1/1
f 13/1/1 8/1/1 7/1/1
f 13/6/1 7/6/1 12/6/1
f 14/1/1 8/1/1 13/1/1
f 15/5/1 10/5/1 9/5/1
f 15/5/1 11/5/1 10/5/1
f 16/3/1 12/3/1 11/3/1
f 16/5/1 11/5/1 15/5/1
f 17/4/1 13/4/1 12/4/1
f 17/3/1 12/3/1 16/3/1
f 18/5/1 14/5/1 13/5/1
f 18/4/1 13/4/1 17/4/1
f 19/5/1 14/5/1 18/5/1
f 26/5/1 21/5/1 20/5/1
f 27/4/1 22/4/1 21/4/1
f 27/5/1 21/5/1 26/5/1
f 28/5/1 23/5/1 22/5/1
f 28/4/1 22/4/1 27/4/1
f 29/4/1 25/4/1 24/4/1
f 29/5/1 23/5/1 28/5/1
f 29/4/1 24/4/1 23/4/1
f 30/4/1 25/4/1 29/4/1
f 31/5/2 32/5/2 37/5/2
f 32/4/2 33/4/2 38/4/2
f 37/5/2 32/5/2 38/5/2
f 33/5/2 34/5/2 39/5/2
f 38/4/2 33/4/2 39/4/2
f 35/4/2 36/4/2 40/4/2
f 39/5/2 34/5/2 40/5/2
f 34/4/2 35/4/2 40/4/2
f 40/4/2 36/4/2 41/4/2
f 42/2/2 43/2/2 44/2/2
f 44/2/2 43/2/2 45/2/2
f 45/2/2 43/2/2 46/2/2
f 46/2/2 43/2/2 47/2/2
f 47/2/2 43/2/2 48/2/2
f 48/2/2 43/2/2 49/2/2
f 44/1/2 45/1/2 50/1/2
f 45/6/2 46/6/2 51/6/2
f 50/1/2 45/1/2 51/1/2
f 46/1/2 47/1/2 52/1/2
f 51/6/2 46/6/2 52/6/2
f 47/6/2 48/6/2 53/6/2
f 52/1/2 47/1/2 53/1/2
f 48/1/2 49/1/2 54/1/2
f 53/6/2 48/6/2 54/6/2
f 54/1/2 49/1/2 55/1/2
f 50/5/2 51/5/2 56/5/2
f 51/5/2 52/5/2 56/5/2
f 52/4/2 53/4/2 57/4/2
f 56/5/2 52/5/2 57/5/2
f 53/5/2 54/5/2 58/5/2
f 57/4/2 53/4/2 58/4/2
f 54/4/2 55/4/2 59/4/2
f 58/5/2 54/5/2 59/5/2
f 59/4/2 55/4/2 60/4/2
f 65/2/3 62/2/3 61/2/3
f 66/1/3 63/1/3 62/1/3
f 66/2/3 62/2/3 65/2/3
f 67/5/3 64/5/3 63/5/3
f 67/1/3 63/1/3 66/1/3
f 68/5/3 64/5/3 67/5/3
f 70/6/3 66/6/3 65/6/3
f 70/6/3 67/6/3 66/6/3
f 71/6/3 67/6/3 70/6/3
f 72/4/3 68/4/3 67/4/3
f 72/6/3 67/6/3 71/6/3
f 73/5/3 69/5/3 68/5/3
f 73/4/3 68/4/3 72/4/3
f 74/5/3 69/5/3 73/5/3
f 75/2/3 71/2/3 70/2/3
f 76/1/3 72/1/3 71/1/3
f 76/2/3 71/2/3 75/2/3
f 77/5/3 73/5/3 72/5/3
f 77/1/3 72/1/3 76/1/3
f 78/5/3 73/5/3 77/5/3
f 79/2/4 80/2/4 83/2/4
f 80/1/4 81/1/4 84/1/4
f 83/2/4 80/2/4 84/2/4
f 81/5/4 82/5/4 85/5/4
f 84/1/4 81/1/4 85/1/4
f 85/5/4 82/5/4 86/5/4
f 83/6/4 84/6/4 88/6/4
f 84/6/4 85/6/4 88/6/4
f 88/6/4 85/6/4 89/6/4
f 85/5/4 86/5/4 90/5/4
f 89/6/4 85/6/4 90/6/4
f 86/4/4 87/4/4 91/4/4
f 90/5/4 86/5/4 91/5/4
f 91/4/4 87/4/4 92/4/4
f 88/2/4 89/2/4 93/2/4
f 89/1/4 90/1/4 94/1/4
f 93/2/4 89/2/4 94/2/4
f 90/4/4 91/4/4 95/4/4
f 94/1/4 90/1/4 95/1/4
f 95/4/4 91/4/4 96/4/4
f 101/2/5 98/2/5 97/2/5
f 101/6/5 99/6/5 98/6/5
f 102/2/5 100/2/5 99/2/5
f 102/6/5 99/6/5 101/6/5
f 103/2/5 101/2/5 97/2/5
f 103/2/5 102/2/5 101/2/5
f 104/2/5 100/2/5 102/2/5
f 104/2/5 102/2/5 103/2/5
f 105/2/5 103/2/5 97/2/5
f 106/6/5 104/6/5 103/6/5
f 106/2/5 103/2/5 105/2/5
f 107/2/5 100/2/5 104/2/5
f 107/6/5 104/6/5 106/6/5
f 108/2/5 100/2/5 107/2/5
f 109/5/6 110/5/6 113/5/6
f 111/5/6 112/5/6 114/5/6
f 109/5/6 113/5/6 115/5/6
f 115/5/6 113/5/6 116/5/6
f 114/5/6 112/5/6 117/5/6
f 117/5/6 112/5/6 118/5/6
f 115/3/6 116/3/6 119/3/6
f 119/3/6 116/3/6 120/3/6
f 117/4/6 118/4/6 121/4/6
f 121/4/6 118/4/6 122/4/6
f 119/4/6 120/4/6 123/4/6
f 123/4/6 120/4/6 124/4/6
f 121/5/6 122/5/6 125/5/6
f 125/5/6 122/5/6 126/5/6
f 123/5/6 124/5/6 127/5/6
f 127/5/6 124/5/6 128/5/6
f 125/4/6 126/4/6 129/4/6
f 129/4/6 126/4/6 130/4/6
f 131/5/6 132/5/6 133/5/6
f 133/5/6 132/5/6 134/5/6
f 133/4/6 134/4/6 135/4/6
f 135/4/6 134/4/6 136/4/6
f 135/5/6 136/5/6 137/5/6
f 137/5/6 136/5/6 138/5/6
f 137/4/6 138/4/6 139/4/6
f 139/4/6 138/4/6 140/4/6
