# MagicaVoxel @ Ephtracy

# group
o 

# material
mtllib INTERIOR.mtl
usemtl palette

# normals
vn -1 0 0
vn 1 0 0
vn 0 0 1
vn 0 0 -1
vn 0 -1 0
vn 0 1 0

# texcoords
vt 0.310547 0.5
vt 0.341797 0.5
vt 0.365234 0.5
vt 0.478516 0.5
vt 0.482422 0.5
vt 0.994141 0.5

# verts
v -0.5 0 0.2
v -0.5 0 0.1
v -0.5 0 -0.1
v -0.5 0 -0.2
v -0.5 0.1 0.1
v -0.5 0.1 -0.1
v -0.5 0.1 -0.2
v -0.5 0.3 0.2
v -0.5 0.3 0.1
v -0.5 0.4 0.2
v -0.5 0.4 0.1
v 0.4 0.1 0.1
v 0.4 0.1 0
v 0.4 0.1 -0.1
v 0.4 0.1 -0.2
v 0.4 0.3 0.1
v 0.4 0.3 0
v 0.4 0.3 -0.1
v 0.4 0.3 -0.2
v 0.4 0.4 0.1
v 0.4 0.4 0
v 0.4 0.4 -0.1
v 0.4 0.4 -0.2
v 0.4 0.5 0
v 0.4 0.5 -0.1
v 0.4 0 0.2
v 0.4 0 0.1
v 0.4 0.1 0.2
v 0.4 0.1 0.1
v 0.4 0.3 0.2
v 0.4 0.3 0.1
v 0.4 0.4 0.2
v 0.4 0.4 0.1
v 0.5 0 0.1
v 0.5 0 -0.1
v 0.5 0 -0.2
v 0.5 0.1 0.1
v 0.5 0.1 0
v 0.5 0.1 -0.1
v 0.5 0.3 0.1
v 0.5 0.3 0
v 0.5 0.3 -0.1
v 0.5 0.3 -0.2
v 0.5 0.4 0.1
v 0.5 0.4 0
v 0.5 0.4 -0.1
v 0.5 0.4 -0.2
v 0.5 0.5 0
v 0.5 0.5 -0.1
v -0.5 0 0.2
v -0.5 0.3 0.2
v -0.5 0.4 0.2
v -0.4 0 0.2
v -0.4 0.1 0.2
v -0.4 0.3 0.2
v -0.4 0.4 0.2
v -0.3 0.2 0.2
v -0.3 0.3 0.2
v -0.1 0.2 0.2
v -0.1 0.3 0.2
v -0.1 0.4 0.2
v 0 0.2 0.2
v 0 0.3 0.2
v 0.1 0.3 0.2
v 0.1 0.4 0.2
v 0.2 0.2 0.2
v 0.2 0.3 0.2
v 0.2 0.4 0.2
v 0.4 0 0.2
v 0.4 0.1 0.2
v 0.4 0.3 0.2
v 0.4 0.4 0.2
v 0.4 0 0.1
v 0.4 0.1 0.1
v 0.4 0.3 0.1
v 0.4 0.4 0.1
v 0.5 0 0.1
v 0.5 0.1 0.1
v 0.5 0.3 0.1
v 0.5 0.4 0.1
v 0.4 0.4 0
v 0.4 0.5 0
v 0.5 0.4 0
v 0.5 0.5 0
v -0.5 0.1 0.1
v -0.5 0.3 0.1
v -0.5 0.4 0.1
v -0.4 0.3 0.1
v -0.4 0.4 0.1
v -0.3 0.1 0.1
v -0.3 0.2 0.1
v -0.3 0.3 0.1
v -0.2 0.1 0.1
v -0.1 0.2 0.1
v -0.1 0.3 0.1
v -0.1 0.4 0.1
v 0 0.2 0.1
v 0 0.3 0.1
v 0.1 0.3 0.1
v 0.1 0.4 0.1
v 0.2 0.1 0.1
v 0.2 0.2 0.1
v 0.2 0.3 0.1
v 0.2 0.4 0.1
v 0.3 0.1 0.1
v 0.4 0.1 0.1
v 0.4 0.3 0.1
v 0.4 0.4 0.1
v 0.4 0.4 -0.1
v 0.4 0.5 -0.1
v 0.5 0.4 -0.1
v 0.5 0.5 -0.1
v -0.5 0 -0.2
v -0.5 0.1 -0.2
v -0.4 0 -0.2
v -0.4 0.1 -0.2
v -0.1 0 -0.2
v -0.1 0.1 -0.2
v 0 0 -0.2
v 0 0.1 -0.2
v 0.4 0 -0.2
v 0.4 0.1 -0.2
v 0.4 0.3 -0.2
v 0.4 0.4 -0.2
v 0.5 0 -0.2
v 0.5 0.3 -0.2
v 0.5 0.4 -0.2
v -0.5 0 0.2
v -0.4 0 0.2
v 0.4 0 0.2
v -0.5 0 0.1
v -0.4 0 0.1
v -0.3 0 0.1
v -0.2 0 0.1
v 0.2 0 0.1
v 0.3 0 0.1
v 0.4 0 0.1
v 0.5 0 0.1
v -0.3 0 0
v -0.2 0 0
v 0.2 0 0
v 0.3 0 0
v 0.4 0 0
v -0.5 0 -0.1
v -0.4 0 -0.1
v -0.1 0 -0.1
v 0 0 -0.1
v 0.3 0 -0.1
v 0.4 0 -0.1
v 0.5 0 -0.1
v -0.5 0 -0.2
v -0.4 0 -0.2
v -0.1 0 -0.2
v 0 0 -0.2
v 0.4 0 -0.2
v 0.5 0 -0.2
v -0.5 0.1 0.1
v -0.3 0.1 0.1
v -0.2 0.1 0.1
v 0.2 0.1 0.1
v 0.3 0.1 0.1
v 0.4 0.1 0.1
v -0.3 0.1 0
v -0.2 0.1 0
v 0.2 0.1 0
v 0.3 0.1 0
v 0.4 0.1 0
v -0.5 0.1 -0.1
v -0.4 0.1 -0.1
v -0.1 0.1 -0.1
v 0 0.1 -0.1
v 0.3 0.1 -0.1
v 0.4 0.1 -0.1
v -0.5 0.1 -0.2
v -0.4 0.1 -0.2
v -0.1 0.1 -0.2
v 0 0.1 -0.2
v 0.4 0.1 -0.2
v -0.5 0.4 0.2
v -0.4 0.4 0.2
v -0.1 0.4 0.2
v 0.1 0.4 0.2
v 0.2 0.4 0.2
v 0.4 0.4 0.2
v -0.5 0.4 0.1
v -0.4 0.4 0.1
v -0.1 0.4 0.1
v 0.1 0.4 0.1
v 0.2 0.4 0.1
v 0.4 0.4 0.1
v 0.5 0.4 0.1
v 0.4 0.4 0
v 0.5 0.4 0
v 0.4 0.4 -0.1
v 0.5 0.4 -0.1
v 0.4 0.4 -0.2
v 0.5 0.4 -0.2
v 0.4 0.5 0
v 0.5 0.5 0
v 0.4 0.5 -0.1
v 0.5 0.5 -0.1

# faces
f 5/1/1 2/1/1 1/1/1
f 5/2/1 3/2/1 2/2/1
f 6/3/1 4/3/1 3/3/1
f 6/2/1 3/2/1 5/2/1
f 7/3/1 4/3/1 6/3/1
f 8/1/1 5/1/1 1/1/1
f 9/1/1 5/1/1 8/1/1
f 10/4/1 9/4/1 8/4/1
f 11/4/1 9/4/1 10/4/1
f 16/1/1 13/1/1 12/1/1
f 17/6/1 14/6/1 13/6/1
f 17/1/1 13/1/1 16/1/1
f 18/1/1 15/1/1 14/1/1
f 18/6/1 14/6/1 17/6/1
f 19/1/1 15/1/1 18/1/1
f 20/4/1 17/4/1 16/4/1
f 21/5/1 18/5/1 17/5/1
f 21/4/1 17/4/1 20/4/1
f 22/4/1 19/4/1 18/4/1
f 22/5/1 18/5/1 21/5/1
f 23/4/1 19/4/1 22/4/1
f 24/4/1 22/4/1 21/4/1
f 25/4/1 22/4/1 24/4/1
f 26/2/2 27/2/2 28/2/2
f 28/2/2 27/2/2 29/2/2
f 28/1/2 29/1/2 30/1/2
f 30/1/2 29/1/2 31/1/2
f 30/4/2 31/4/2 32/4/2
f 32/4/2 31/4/2 33/4/2
f 34/2/2 35/2/2 37/2/2
f 37/2/2 35/2/2 38/2/2
f 35/1/2 36/1/2 39/1/2
f 38/2/2 35/2/2 39/2/2
f 37/1/2 38/1/2 40/1/2
f 38/6/2 39/6/2 41/6/2
f 40/1/2 38/1/2 41/1/2
f 39/1/2 36/1/2 42/1/2
f 41/6/2 39/6/2 42/6/2
f 42/1/2 36/1/2 43/1/2
f 40/4/2 41/4/2 44/4/2
f 41/5/2 42/5/2 45/5/2
f 44/4/2 41/4/2 45/4/2
f 42/4/2 43/4/2 46/4/2
f 45/5/2 42/5/2 46/5/2
f 46/4/2 43/4/2 47/4/2
f 45/4/2 46/4/2 48/4/2
f 48/4/2 46/4/2 49/4/2
f 53/1/3 51/1/3 50/1/3
f 54/1/3 51/1/3 53/1/3
f 55/4/3 52/4/3 51/4/3
f 55/1/3 51/1/3 54/1/3
f 56/4/3 52/4/3 55/4/3
f 57/1/3 55/1/3 54/1/3
f 58/5/3 56/5/3 55/5/3
f 58/1/3 55/1/3 57/1/3
f 59/1/3 57/1/3 54/1/3
f 59/6/3 58/6/3 57/6/3
f 60/5/3 56/5/3 58/5/3
f 60/6/3 58/6/3 59/6/3
f 61/5/3 56/5/3 60/5/3
f 62/1/3 59/1/3 54/1/3
f 62/1/3 60/1/3 59/1/3
f 63/4/3 61/4/3 60/4/3
f 63/1/3 60/1/3 62/1/3
f 64/6/3 63/6/3 62/6/3
f 64/4/3 61/4/3 63/4/3
f 65/4/3 61/4/3 64/4/3
f 66/1/3 62/1/3 54/1/3
f 66/6/3 64/6/3 62/6/3
f 67/5/3 65/5/3 64/5/3
f 67/6/3 64/6/3 66/6/3
f 68/5/3 65/5/3 67/5/3
f 69/2/3 54/2/3 53/2/3
f 70/1/3 66/1/3 54/1/3
f 70/2/3 54/2/3 69/2/3
f 70/1/3 67/1/3 66/1/3
f 71/4/3 68/4/3 67/4/3
f 71/1/3 67/1/3 70/1/3
f 72/4/3 68/4/3 71/4/3
f 77/2/3 74/2/3 73/2/3
f 78/1/3 75/1/3 74/1/3
f 78/2/3 74/2/3 77/2/3
f 79/4/3 76/4/3 75/4/3
f 79/1/3 75/1/3 78/1/3
f 80/4/3 76/4/3 79/4/3
f 83/4/3 82/4/3 81/4/3
f 84/4/3 82/4/3 83/4/3
f 85/1/4 86/1/4 88/1/4
f 86/4/4 87/4/4 88/4/4
f 88/4/4 87/4/4 89/4/4
f 85/1/4 88/1/4 90/1/4
f 90/1/4 88/1/4 91/1/4
f 88/5/4 89/5/4 92/5/4
f 91/1/4 88/1/4 92/1/4
f 90/1/4 91/1/4 93/1/4
f 91/6/4 92/6/4 94/6/4
f 93/1/4 91/1/4 94/1/4
f 92/5/4 89/5/4 95/5/4
f 94/6/4 92/6/4 95/6/4
f 95/5/4 89/5/4 96/5/4
f 93/1/4 94/1/4 97/1/4
f 94/1/4 95/1/4 97/1/4
f 95/4/4 96/4/4 98/4/4
f 97/1/4 95/1/4 98/1/4
f 97/6/4 98/6/4 99/6/4
f 98/4/4 96/4/4 99/4/4
f 99/4/4 96/4/4 100/4/4
f 93/1/4 97/1/4 101/1/4
f 97/6/4 99/6/4 102/6/4
f 101/1/4 97/1/4 102/1/4
f 99/5/4 100/5/4 103/5/4
f 102/6/4 99/6/4 103/6/4
f 103/5/4 100/5/4 104/5/4
f 101/1/4 102/1/4 105/1/4
f 102/1/4 103/1/4 105/1/4
f 105/1/4 103/1/4 106/1/4
f 103/4/4 104/4/4 107/4/4
f 106/1/4 103/1/4 107/1/4
f 107/4/4 104/4/4 108/4/4
f 109/4/4 110/4/4 111/4/4
f 111/4/4 110/4/4 112/4/4
f 113/3/4 114/3/4 115/3/4
f 115/3/4 114/3/4 116/3/4
f 115/2/4 116/2/4 117/2/4
f 117/2/4 116/2/4 118/2/4
f 117/3/4 118/3/4 119/3/4
f 119/3/4 118/3/4 120/3/4
f 119/2/4 120/2/4 121/2/4
f 121/2/4 120/2/4 122/2/4
f 121/1/4 122/1/4 125/1/4
f 122/1/4 123/1/4 125/1/4
f 123/4/4 124/4/4 126/4/4
f 125/1/4 123/1/4 126/1/4
f 126/4/4 124/4/4 127/4/4
f 131/1/5 129/1/5 128/1/5
f 132/2/5 130/2/5 129/2/5
f 132/1/5 129/1/5 131/1/5
f 133/2/5 130/2/5 132/2/5
f 134/2/5 130/2/5 133/2/5
f 135/2/5 130/2/5 134/2/5
f 136/2/5 130/2/5 135/2/5
f 137/2/5 130/2/5 136/2/5
f 139/2/5 132/2/5 131/2/5
f 139/2/5 133/2/5 132/2/5
f 139/3/5 134/3/5 133/3/5
f 140/2/5 135/2/5 134/2/5
f 140/3/5 134/3/5 139/3/5
f 141/3/5 136/3/5 135/3/5
f 141/2/5 135/2/5 140/2/5
f 142/2/5 138/2/5 137/2/5
f 142/3/5 136/3/5 141/3/5
f 142/2/5 137/2/5 136/2/5
f 143/2/5 138/2/5 142/2/5
f 144/2/5 141/2/5 140/2/5
f 144/2/5 139/2/5 131/2/5
f 144/2/5 140/2/5 139/2/5
f 144/2/5 142/2/5 141/2/5
f 145/2/5 142/2/5 144/2/5
f 146/2/5 142/2/5 145/2/5
f 147/2/5 142/2/5 146/2/5
f 148/3/5 143/3/5 142/3/5
f 148/2/5 142/2/5 147/2/5
f 149/2/5 138/2/5 143/2/5
f 149/3/5 143/3/5 148/3/5
f 150/2/5 138/2/5 149/2/5
f 151/3/5 145/3/5 144/3/5
f 152/2/5 146/2/5 145/2/5
f 152/3/5 145/3/5 151/3/5
f 153/3/5 147/3/5 146/3/5
f 153/2/5 146/2/5 152/2/5
f 154/2/5 148/2/5 147/2/5
f 154/3/5 147/3/5 153/3/5
f 154/2/5 149/2/5 148/2/5
f 155/1/5 150/1/5 149/1/5
f 155/2/5 149/2/5 154/2/5
f 156/1/5 150/1/5 155/1/5
f 157/2/6 158/2/6 163/2/6
f 158/3/6 159/3/6 163/3/6
f 159/2/6 160/2/6 164/2/6
f 163/3/6 159/3/6 164/3/6
f 160/3/6 161/3/6 165/3/6
f 164/2/6 160/2/6 165/2/6
f 161/2/6 162/2/6 166/2/6
f 165/3/6 161/3/6 166/3/6
f 166/2/6 162/2/6 167/2/6
f 164/2/6 165/2/6 168/2/6
f 163/2/6 164/2/6 168/2/6
f 157/2/6 163/2/6 168/2/6
f 165/2/6 166/2/6 168/2/6
f 168/2/6 166/2/6 169/2/6
f 169/2/6 166/2/6 170/2/6
f 170/2/6 166/2/6 171/2/6
f 166/3/6 167/3/6 172/3/6
f 171/2/6 166/2/6 172/2/6
f 172/3/6 167/3/6 173/3/6
f 168/3/6 169/3/6 174/3/6
f 169/2/6 170/2/6 175/2/6
f 174/3/6 169/3/6 175/3/6
f 170/3/6 171/3/6 176/3/6
f 175/2/6 170/2/6 176/2/6
f 171/2/6 172/2/6 177/2/6
f 176/3/6 171/3/6 177/3/6
f 172/2/6 173/2/6 177/2/6
f 177/2/6 173/2/6 178/2/6
f 179/4/6 180/4/6 185/4/6
f 180/5/6 181/5/6 186/5/6
f 185/4/6 180/4/6 186/4/6
f 181/4/6 182/4/6 187/4/6
f 186/5/6 181/5/6 187/5/6
f 182/5/6 183/5/6 188/5/6
f 187/4/6 182/4/6 188/4/6
f 183/4/6 184/4/6 189/4/6
f 188/5/6 183/5/6 189/5/6
f 189/4/6 184/4/6 190/4/6
f 190/4/6 191/4/6 192/4/6
f 192/4/6 191/4/6 193/4/6
f 194/4/6 195/4/6 196/4/6
f 196/4/6 195/4/6 197/4/6
f 198/4/6 199/4/6 200/4/6
f 200/4/6 199/4/6 201/4/6
