# MagicaVoxel @ Ephtracy

# group
o 

# material
mtllib Tower.mtl
usemtl palette

# normals
vn -1 0 0
vn 1 0 0
vn 0 0 1
vn 0 0 -1
vn 0 -1 0
vn 0 1 0

# texcoords
vt 0.939453 0.5
vt 0.943359 0.5
vt 0.951172 0.5
vt 0.994141 0.5

# verts
v -0.1 -4 0.1
v -0.1 -4 0
v -0.1 -4 -0.1
v -0.1 -4 -0.2
v -0.1 -3.9 0
v -0.1 -3.9 -0.1
v -0.1 -3.9 -0.2
v -0.1 -3.8 0.1
v -0.1 -3.8 0
v -0.1 -3.8 -0.1
v -0.1 -3.8 -0.2
v -0.1 -3.7 0.1
v -0.1 -3.7 0
v -0.1 -3.7 -0.1
v -0.1 -3.7 -0.2
v -0.1 -3.6 0.1
v -0.1 -3.6 0
v -0.1 -3.6 -0.1
v -0.1 -3.6 -0.2
v -0.1 -3.5 0.1
v -0.1 -3.5 0
v -0.1 -3.5 -0.1
v -0.1 -3.5 -0.2
v 0 -3.9 0
v 0 -3.9 -0.1
v 0 -3.8 0
v 0 -3.8 -0.1
v 0 -3.7 0
v 0 -3.7 -0.1
v 0.1 -3.9 0.1
v 0.1 -3.9 0
v 0.1 -3.9 -0.1
v 0.1 -3.9 -0.2
v 0.1 -3.8 0.1
v 0.1 -3.8 0
v 0.1 -3.7 0.1
v 0.1 -3.7 0
v 0.1 -3.7 -0.1
v 0.1 -3.7 -0.2
v 0.1 -3.6 0.1
v 0.1 -3.6 0
v 0.1 -3.6 -0.1
v 0.1 -3.6 -0.2
v 0.1 -3.5 0.1
v 0.1 -3.5 0
v 0.1 -3.5 -0.1
v 0.1 -3.5 -0.2
v 0 -3.9 0.1
v 0 -3.9 0
v 0 -3.9 -0.1
v 0 -3.9 -0.2
v 0 -3.8 0.1
v 0 -3.8 0
v 0 -3.8 -0.1
v 0 -3.8 -0.2
v 0 -3.7 0.1
v 0 -3.7 0
v 0 -3.7 -0.1
v 0 -3.7 -0.2
v 0 -3.6 0.1
v 0 -3.6 0
v 0 -3.6 -0.1
v 0 -3.6 -0.2
v 0 -3.5 0.1
v 0 -3.5 0
v 0 -3.5 -0.1
v 0 -3.5 -0.2
v 0.1 -3.9 0
v 0.1 -3.9 -0.1
v 0.1 -3.8 0
v 0.1 -3.7 0
v 0.1 -3.7 -0.1
v 0.2 -4 0.1
v 0.2 -4 0
v 0.2 -4 -0.1
v 0.2 -4 -0.2
v 0.2 -3.9 0
v 0.2 -3.9 -0.1
v 0.2 -3.9 -0.2
v 0.2 -3.8 0.1
v 0.2 -3.8 0
v 0.2 -3.7 0.1
v 0.2 -3.7 0
v 0.2 -3.7 -0.1
v 0.2 -3.6 0.1
v 0.2 -3.6 0
v 0.2 -3.6 -0.1
v 0.2 -3.5 0.1
v 0.2 -3.5 0
v 0.2 -3.5 -0.1
v 0.2 -3.5 -0.2
v -0.1 -4 0.1
v -0.1 -3.8 0.1
v -0.1 -3.7 0.1
v -0.1 -3.6 0.1
v -0.1 -3.5 0.1
v 0 -4 0.1
v 0 -3.9 0.1
v 0 -3.8 0.1
v 0 -3.7 0.1
v 0 -3.6 0.1
v 0 -3.5 0.1
v 0.1 -4 0.1
v 0.1 -3.9 0.1
v 0.1 -3.8 0.1
v 0.1 -3.7 0.1
v 0.1 -3.6 0.1
v 0.1 -3.5 0.1
v 0.2 -4 0.1
v 0.2 -3.8 0.1
v 0.2 -3.7 0.1
v 0.2 -3.6 0.1
v 0.2 -3.5 0.1
v 0 -3.9 0
v 0 -3.8 0
v 0 -3.7 0
v 0.1 -3.9 0
v 0.1 -3.8 0
v 0.1 -3.7 0
v -0.1 -3.9 -0.1
v -0.1 -3.8 -0.1
v -0.1 -3.7 -0.1
v -0.1 -3.6 -0.1
v -0.1 -3.5 -0.1
v 0 -3.9 -0.1
v 0 -3.8 -0.1
v 0 -3.7 -0.1
v 0 -3.6 -0.1
v 0 -3.5 -0.1
v 0.1 -3.9 -0.1
v 0.1 -3.7 -0.1
v 0.1 -3.6 -0.1
v 0.1 -3.5 -0.1
v 0.2 -3.9 -0.1
v 0.2 -3.7 -0.1
v 0.2 -3.6 -0.1
v 0.2 -3.5 -0.1
v -0.1 -3.9 0
v -0.1 -3.8 0
v -0.1 -3.7 0
v -0.1 -3.6 0
v -0.1 -3.5 0
v 0 -3.9 0
v 0 -3.8 0
v 0 -3.7 0
v 0 -3.6 0
v 0 -3.5 0
v 0.1 -3.9 0
v 0.1 -3.8 0
v 0.1 -3.7 0
v 0.1 -3.6 0
v 0.1 -3.5 0
v 0.2 -3.9 0
v 0.2 -3.8 0
v 0.2 -3.7 0
v 0.2 -3.6 0
v 0.2 -3.5 0
v 0 -3.9 -0.1
v 0 -3.8 -0.1
v 0 -3.7 -0.1
v 0.1 -3.9 -0.1
v 0.1 -3.7 -0.1
v -0.1 -4 -0.2
v -0.1 -3.9 -0.2
v -0.1 -3.8 -0.2
v -0.1 -3.7 -0.2
v -0.1 -3.6 -0.2
v -0.1 -3.5 -0.2
v 0 -4 -0.2
v 0 -3.9 -0.2
v 0 -3.8 -0.2
v 0 -3.7 -0.2
v 0 -3.6 -0.2
v 0 -3.5 -0.2
v 0.1 -4 -0.2
v 0.1 -3.9 -0.2
v 0.1 -3.7 -0.2
v 0.1 -3.6 -0.2
v 0.1 -3.5 -0.2
v 0.2 -4 -0.2
v 0.2 -3.9 -0.2
v 0.2 -3.5 -0.2
v -0.1 -4 0.1
v 0 -4 0.1
v 0.1 -4 0.1
v 0.2 -4 0.1
v -0.1 -4 0
v 0 -4 0
v 0.1 -4 0
v 0.2 -4 0
v -0.1 -4 -0.1
v 0 -4 -0.1
v 0.1 -4 -0.1
v 0.2 -4 -0.1
v -0.1 -4 -0.2
v 0 -4 -0.2
v 0.1 -4 -0.2
v 0.2 -4 -0.2
v 0 -3.7 0.1
v 0.1 -3.7 0.1
v -0.1 -3.7 0
v 0 -3.7 0
v 0.1 -3.7 0
v 0.2 -3.7 0
v -0.1 -3.7 -0.1
v 0 -3.7 -0.1
v 0.1 -3.7 -0.1
v 0.2 -3.7 -0.1
v 0 -3.7 -0.2
v 0.1 -3.7 -0.2
v 0 -3.9 0.1
v 0.1 -3.9 0.1
v -0.1 -3.9 0
v 0 -3.9 0
v 0.1 -3.9 0
v 0.2 -3.9 0
v -0.1 -3.9 -0.1
v 0 -3.9 -0.1
v 0.1 -3.9 -0.1
v 0.2 -3.9 -0.1
v 0 -3.9 -0.2
v 0.1 -3.9 -0.2
v 0 -3.6 0.1
v 0.1 -3.6 0.1
v -0.1 -3.6 0
v 0 -3.6 0
v 0.1 -3.6 0
v 0.2 -3.6 0
v -0.1 -3.6 -0.1
v 0 -3.6 -0.1
v 0.1 -3.6 -0.1
v 0.2 -3.6 -0.1
v 0 -3.6 -0.2
v 0.1 -3.6 -0.2
v -0.1 -3.5 0.1
v 0 -3.5 0.1
v 0.1 -3.5 0.1
v 0.2 -3.5 0.1
v -0.1 -3.5 0
v 0 -3.5 0
v 0.1 -3.5 0
v 0.2 -3.5 0
v -0.1 -3.5 -0.1
v 0 -3.5 -0.1
v 0.1 -3.5 -0.1
v 0.2 -3.5 -0.1
v -0.1 -3.5 -0.2
v 0 -3.5 -0.2
v 0.1 -3.5 -0.2
v 0.2 -3.5 -0.2

# faces
f 5/2/1 2/2/1 1/2/1
f 5/4/1 3/4/1 2/4/1
f 6/1/1 4/1/1 3/1/1
f 6/4/1 3/4/1 5/4/1
f 7/1/1 4/1/1 6/1/1
f 8/2/1 5/2/1 1/2/1
f 9/2/1 5/2/1 8/2/1
f 10/2/1 7/2/1 6/2/1
f 11/2/1 7/2/1 10/2/1
f 12/1/1 9/1/1 8/1/1
f 13/1/1 9/1/1 12/1/1
f 14/1/1 11/1/1 10/1/1
f 15/1/1 11/1/1 14/1/1
f 16/2/1 13/2/1 12/2/1
f 17/1/1 14/1/1 13/1/1
f 17/2/1 13/2/1 16/2/1
f 18/2/1 15/2/1 14/2/1
f 18/1/1 14/1/1 17/1/1
f 19/2/1 15/2/1 18/2/1
f 20/1/1 17/1/1 16/1/1
f 21/1/1 17/1/1 20/1/1
f 22/1/1 19/1/1 18/1/1
f 23/1/1 19/1/1 22/1/1
f 26/3/1 25/3/1 24/3/1
f 27/3/1 25/3/1 26/3/1
f 28/3/1 27/3/1 26/3/1
f 29/3/1 27/3/1 28/3/1
f 34/1/1 31/1/1 30/1/1
f 35/1/1 31/1/1 34/1/1
f 36/2/1 35/2/1 34/2/1
f 37/2/1 35/2/1 36/2/1
f 38/1/1 33/1/1 32/1/1
f 39/1/1 33/1/1 38/1/1
f 44/2/1 41/2/1 40/2/1
f 45/2/1 41/2/1 44/2/1
f 46/1/1 43/1/1 42/1/1
f 47/1/1 43/1/1 46/1/1
f 48/2/2 49/2/2 52/2/2
f 52/2/2 49/2/2 53/2/2
f 50/2/2 51/2/2 54/2/2
f 54/2/2 51/2/2 55/2/2
f 52/1/2 53/1/2 56/1/2
f 56/1/2 53/1/2 57/1/2
f 54/1/2 55/1/2 58/1/2
f 58/1/2 55/1/2 59/1/2
f 60/1/2 61/1/2 64/1/2
f 64/1/2 61/1/2 65/1/2
f 62/1/2 63/1/2 66/1/2
f 66/1/2 63/1/2 67/1/2
f 68/3/2 69/3/2 70/3/2
f 70/3/2 69/3/2 71/3/2
f 71/3/2 69/3/2 72/3/2
f 73/1/2 74/1/2 77/1/2
f 74/4/2 75/4/2 77/4/2
f 75/2/2 76/2/2 78/2/2
f 77/4/2 75/4/2 78/4/2
f 78/2/2 76/2/2 79/2/2
f 73/1/2 77/1/2 80/1/2
f 80/1/2 77/1/2 81/1/2
f 80/2/2 81/2/2 82/2/2
f 82/2/2 81/2/2 83/2/2
f 78/1/2 79/1/2 84/1/2
f 82/1/2 83/1/2 85/1/2
f 83/1/2 84/1/2 85/1/2
f 85/1/2 84/1/2 86/1/2
f 84/1/2 79/1/2 87/1/2
f 86/1/2 84/1/2 87/1/2
f 85/2/2 86/2/2 88/2/2
f 88/2/2 86/2/2 89/2/2
f 87/1/2 79/1/2 90/1/2
f 90/1/2 79/1/2 91/1/2
f 97/2/3 93/2/3 92/2/3
f 98/2/3 93/2/3 97/2/3
f 99/1/3 94/1/3 93/1/3
f 99/2/3 93/2/3 98/2/3
f 100/2/3 95/2/3 94/2/3
f 100/1/3 94/1/3 99/1/3
f 101/1/3 96/1/3 95/1/3
f 101/2/3 95/2/3 100/2/3
f 102/1/3 96/1/3 101/1/3
f 103/4/3 98/4/3 97/4/3
f 104/4/3 98/4/3 103/4/3
f 106/2/3 101/2/3 100/2/3
f 107/2/3 101/2/3 106/2/3
f 109/1/3 105/1/3 104/1/3
f 109/1/3 104/1/3 103/1/3
f 110/2/3 106/2/3 105/2/3
f 110/1/3 105/1/3 109/1/3
f 111/1/3 107/1/3 106/1/3
f 111/2/3 106/2/3 110/2/3
f 112/2/3 108/2/3 107/2/3
f 112/1/3 107/1/3 111/1/3
f 113/2/3 108/2/3 112/2/3
f 117/3/3 115/3/3 114/3/3
f 117/3/3 116/3/3 115/3/3
f 118/3/3 116/3/3 117/3/3
f 119/3/3 116/3/3 118/3/3
f 125/2/3 121/2/3 120/2/3
f 126/1/3 122/1/3 121/1/3
f 126/2/3 121/2/3 125/2/3
f 127/1/3 122/1/3 126/1/3
f 128/1/3 124/1/3 123/1/3
f 129/1/3 124/1/3 128/1/3
f 134/1/3 131/1/3 130/1/3
f 135/1/3 131/1/3 134/1/3
f 136/1/3 133/1/3 132/1/3
f 137/1/3 133/1/3 136/1/3
f 138/2/4 139/2/4 143/2/4
f 139/1/4 140/1/4 144/1/4
f 143/2/4 139/2/4 144/2/4
f 144/1/4 140/1/4 145/1/4
f 141/1/4 142/1/4 146/1/4
f 146/1/4 142/1/4 147/1/4
f 148/1/4 149/1/4 153/1/4
f 149/2/4 150/2/4 154/2/4
f 153/1/4 149/1/4 154/1/4
f 154/2/4 150/2/4 155/2/4
f 151/2/4 152/2/4 156/2/4
f 156/2/4 152/2/4 157/2/4
f 158/3/4 159/3/4 161/3/4
f 159/3/4 160/3/4 161/3/4
f 161/3/4 160/3/4 162/3/4
f 163/1/4 164/1/4 169/1/4
f 164/2/4 165/2/4 170/2/4
f 169/1/4 164/1/4 170/1/4
f 165/1/4 166/1/4 171/1/4
f 170/2/4 165/2/4 171/2/4
f 166/2/4 167/2/4 172/2/4
f 171/1/4 166/1/4 172/1/4
f 167/1/4 168/1/4 173/1/4
f 172/2/4 167/2/4 173/2/4
f 173/1/4 168/1/4 174/1/4
f 169/4/4 170/4/4 175/4/4
f 175/4/4 170/4/4 176/4/4
f 172/2/4 173/2/4 177/2/4
f 177/2/4 173/2/4 178/2/4
f 175/2/4 176/2/4 180/2/4
f 178/1/4 179/1/4 181/1/4
f 180/2/4 176/2/4 181/2/4
f 176/1/4 177/1/4 181/1/4
f 177/1/4 178/1/4 181/1/4
f 181/1/4 179/1/4 182/1/4
f 187/2/5 184/2/5 183/2/5
f 188/4/5 185/4/5 184/4/5
f 188/2/5 184/2/5 187/2/5
f 189/1/5 186/1/5 185/1/5
f 189/4/5 185/4/5 188/4/5
f 190/1/5 186/1/5 189/1/5
f 191/4/5 188/4/5 187/4/5
f 192/3/5 189/3/5 188/3/5
f 192/4/5 188/4/5 191/4/5
f 193/4/5 190/4/5 189/4/5
f 193/3/5 189/3/5 192/3/5
f 194/4/5 190/4/5 193/4/5
f 195/1/5 192/1/5 191/1/5
f 196/4/5 193/4/5 192/4/5
f 196/1/5 192/1/5 195/1/5
f 197/2/5 194/2/5 193/2/5
f 197/4/5 193/4/5 196/4/5
f 198/2/5 194/2/5 197/2/5
f 202/2/5 200/2/5 199/2/5
f 203/2/5 200/2/5 202/2/5
f 205/1/5 202/1/5 201/1/5
f 206/1/5 202/1/5 205/1/5
f 207/1/5 204/1/5 203/1/5
f 208/1/5 204/1/5 207/1/5
f 209/2/5 207/2/5 206/2/5
f 210/2/5 207/2/5 209/2/5
f 211/4/6 212/4/6 214/4/6
f 214/4/6 212/4/6 215/4/6
f 213/4/6 214/4/6 217/4/6
f 217/4/6 214/4/6 218/4/6
f 215/4/6 216/4/6 219/4/6
f 219/4/6 216/4/6 220/4/6
f 218/4/6 219/4/6 221/4/6
f 221/4/6 219/4/6 222/4/6
f 223/2/6 224/2/6 226/2/6
f 226/2/6 224/2/6 227/2/6
f 225/1/6 226/1/6 229/1/6
f 226/3/6 227/3/6 230/3/6
f 229/1/6 226/1/6 230/1/6
f 227/1/6 228/1/6 231/1/6
f 230/3/6 227/3/6 231/3/6
f 231/1/6 228/1/6 232/1/6
f 230/2/6 231/2/6 233/2/6
f 233/2/6 231/2/6 234/2/6
f 235/1/6 236/1/6 239/1/6
f 239/1/6 236/1/6 240/1/6
f 237/2/6 238/2/6 241/2/6
f 241/2/6 238/2/6 242/2/6
f 243/1/6 244/1/6 247/1/6
f 247/1/6 244/1/6 248/1/6
f 245/1/6 246/1/6 249/1/6
f 249/1/6 246/1/6 250/1/6
